<svg
   fill="currentColor"
   viewBox="0 0 224.33722 49.021832"
   version="1.1"
   id="svg1932"
   xmlns="http://www.w3.org/2000/svg"
   xmlns:svg="http://www.w3.org/2000/svg">
  <defs
     id="defs1929" />
  <g
     id="layer1"
     transform="translate(-12.182127,-132.27913)">
    <g
       id="g1735"
       transform="matrix(0.35277777,0,0,0.35277777,-231.78176,-22.128188)">
      <path
         d="m 1213.8725,438.64958 c -16.8,1.8 -38.3,7.7 -62.7,17.3 l -13,5 3.4,2.9 c 1.9,1.5 3.8,2.8 4.2,2.8 0.4,0 3.1,-1 6,-2.1 19.7,-7.9 41.2,-14 58,-16.5 16.6,-2.4 41.5,-1.5 55.8,2.1 16,3.9 27.5,10 36.9,19.3 11.5,11.4 16.1,22.2 16.1,37.7 0,9.3 -2.4,19.1 -6.4,25.9 -6.5,11.1 -15.5,16.5 -29.1,17.3 -17.8,1.2 -32.4,-5.9 -39.3,-19.2 -2.5,-4.6 -2.7,-6 -2.7,-16.5 0,-10.5 0.2,-12 2.7,-17.1 1.5,-3 3.9,-6.5 5.2,-7.8 l 2.4,-2.3 7,1.8 c 5.9,1.5 7.6,1.6 11.1,0.6 12.2,-3.7 7.1,-15.5 -6.5,-15.4 -11.1,0.1 -21.6,8 -27.7,21 -3,6.4 -3.2,7.3 -3.2,18.7 0,11.7 0.1,12.2 3.6,19.5 5.7,11.9 15.7,20.3 28.3,23.6 24.8,6.6 47.3,-2.4 57.4,-22.9 10.1,-20.5 7.5,-45.9 -6.7,-64.7 -17.6,-23.4 -57.3,-35.6 -100.8,-31 z"
         id="path55-3"
         style="stroke-width:0.1" />
      <path
         d="m 849.07245,440.24958 c -15.2,3.8 -25,16.8 -17.9,23.8 1.9,2 6.3,2.1 9,0.2 1.1,-0.8 3.3,-4.3 4.9,-7.8 1.5,-3.5 3.3,-6.6 3.9,-7 2.1,-1.4 18.1,-0.9 22.8,0.8 5.8,1.9 12.2,7.4 15.1,12.8 2.8,5.3 3.1,20.2 0.5,28.6 -8.6,27.5 -43.4,52.4 -85.6,61.2 -15.1,3.2 -40.9,3.1 -52.7,0 -20.1,-5.4 -35,-16.7 -42.2,-31.8 -3.6,-7.4 -3.8,-8.6 -4.1,-18.9 -0.3,-10.4 -0.2,-11.3 2.5,-16.5 3.3,-6.5 9.2,-11.3 16.5,-13.5 5.3,-1.5 20.5,-2.1 22.4,-0.7 0.5,0.4 2,2.7 3.3,5.2 4.2,8.2 9.1,12 15.6,12 4.7,0 8.5,-3.6 8.5,-8.2 0,-7.2 -7.6,-14.4 -18.8,-17.8 -24.2,-7.5 -49.1,0.6 -57.9,18.8 -3.5,7.4 -4.4,22.3 -1.9,32.3 5.3,21.2 20.1,37.5 41.5,45.8 22.6,8.7 54.1,8.7 89.8,0 26.2,-6.4 43.4,-13.4 93.8,-38.7 79.5,-39.7 112.30005,-53 145.00005,-58.8 12,-2.1 33.2,-1.8 43.2,0.6 24.9,5.9 47,26.4 52.8,48.7 5.3,20.2 -4.5,41.4 -23.2,50.4 -13.1,6.3 -31.4,4.9 -43.7,-3.3 l -4.9,-3.3 0.2,-8.8 c 0.2,-8.5 0.1,-8.8 -2.8,-11.7 -7.7,-7.8 -19.7,1 -17.1,12.5 1.3,5.6 5.5,11.1 12.3,16.2 12.1,9 24.1,13.3 37.2,13.3 38.9,0 64.8,-38.8 50.1,-75.1 -15.7,-38.8 -61.5,-60.8 -116.9,-56 -27,2.2 -47.6,7.9 -77.30005,21.1 -17.1,7.6 -45.8,22.6 -69.9,36.3 -8.2,4.7 -15.1,8.4 -15.3,8.2 -0.2,-0.2 0.8,-2.1 2.2,-4.4 4.9,-7.8 7.9,-18.6 8,-29.1 0.1,-13.2 -1.9,-18.6 -9.8,-26.6 -8.1,-8 -14.5,-10.6 -27.6,-11 -5.2,-0.1 -10.4,-0.1 -11.5,0.2 z"
         id="path59-2"
         style="stroke-width:0.1" />
      <path
         d="m 1092.9725,480.64958 c -22.4,10 -70.7,28.7 -102.20005,39.5 -20.6,7 -26.7,10.7 -26,15.7 0.8,5.8 12.3,5.7 15.6,-0.2 0.9,-1.7 2.4,-3.2 3.2,-3.6 0.8,-0.3 11.9,-4.2 24.50005,-8.6 12.7,-4.4 29.5,-10.5 37.5,-13.5 30.7,-11.8 81.3,-34.1 80.4,-35.4 -0.5,-0.9 -8,-5 -8.6,-4.8 -0.2,0 -11.2,4.9 -24.4,10.9 z"
         id="path63-7"
         style="stroke-width:0.1" />
      <path
         d="m 991.07245,503.64958 -27,0.5 -6.2,2.9 c -3.5,1.6 -6.3,3.1 -6.3,3.5 0,0.3 11.6,0.4 25.7,0.1 25.50005,-0.5 25.90005,-0.5 34.10005,-3.5 4.5,-1.6 8.2,-3.3 8.2,-3.7 0,-0.5 -0.3,-0.7 -0.7,-0.6 -0.5,0.1 -12.9,0.5 -27.80005,0.8 z"
         id="path67-0"
         style="stroke-width:0.1" />
      <path
         d="m 710.57245,507.14958 v 3.5 h 79.9 79.9 l 2.6,-3.5 2.7,-3.5 h -82.5 -82.6 z"
         id="path77-8"
         style="stroke-width:0.1" />
      <path
         d="m 1067.3725,506.94958 c -4.3,1.8 -7.8,3.4 -7.8,3.7 0,0.3 21.1,0.4 47,0.2 l 47,-0.2 -1.3,-3.3 -1.3,-3.2 -38,-0.2 -37.9,-0.1 z"
         id="path79-4"
         style="stroke-width:0.1" />
      <path
         d="m 1174.8725,507.14958 1,3.5 h 24.8 c 26.5,0 25.9,0.1 25.9,-5.1 0,-1.8 -1,-1.9 -26.4,-1.9 h -26.4 z"
         id="path81-2"
         style="stroke-width:0.1" />
      <path
         d="m 1246.5725,505.54958 c 0,1.1 -0.3,2.6 -0.6,3.5 -0.6,1.4 2.8,1.6 33.5,1.6 h 34.1 v -3.5 -3.5 h -33.5 c -32.4,0 -33.5,0.1 -33.5,1.9 z"
         id="path83-2"
         style="stroke-width:0.1" />
    </g>
  </g>
</svg>
