<svg
   fill="currentColor"
   viewBox="0 0 195.48958 39.51482"
   version="1.1"
   id="svg1820"
   xmlns="http://www.w3.org/2000/svg"
   xmlns:svg="http://www.w3.org/2000/svg">
  <defs
     id="defs1817" />
  <g
     id="layer1"
     transform="translate(-3.537974,-80.444045)">
    <g
       id="g567"
       transform="matrix(0.30743128,0,0,0.28515115,-63.546804,84.132561)">
      <path
         d="m 293.86998,-12.2603 c -27.1,3.3 -50.7,15 -63.1,31 -17.5,22.8 -16.6,57.6 2,76.6 9.1,9.3 23.2,14.2 37.4,12.8 19.6,-1.8 32.4,-10.1 39.8,-25.5 3.5,-7.3 3.6,-7.8 3.6,-19.5 0,-11.4 -0.2,-12.3 -3.2,-18.7 -6.1,-13 -16.6,-20.9 -27.7,-21 -13.6,-0.1 -18.7,11.7 -6.5,15.4 3.5,1 5.2,0.9 11.1,-0.6 l 7,-1.8 2.4,2.3 c 1.3,1.3 3.7,4.8 5.2,7.8 2.5,5.1 2.7,6.6 2.7,17.1 0,10.5 -0.2,11.9 -2.7,16.5 -6.9,13.3 -21.5,20.4 -39.3,19.2 -5.9,-0.3 -9.9,-1.2 -13.8,-3 -13.5,-6.1 -21.7,-21.5 -21.7,-40.2 0,-15.5 4.6,-26.3 16.1,-37.7 6.1,-6.1 9.5,-8.6 17,-12.2 14.4,-6.9 26.8,-9.7 47.4,-10.3 27.6,-0.9 49.7,3.5 82.7,16.3 4.8,1.9 9.1,3.4 9.6,3.4 0.4,0 2.3,-1.3 4.2,-2.8 l 3.4,-2.9 -13,-5 c -32,-12.6 -51.6,-17.1 -76.4,-17.8 -9.1,-0.2 -19.9,0 -24.2,0.6 z"
         id="path53-6"
         style="stroke-width:0.1" />
      <path
         d="m 672.86998,-9.4603 c -7.5,2.4 -11.8,5.2 -17.2,11.2 -6.1,6.8 -8.1,13 -8,24.9 0.1,10.5 3.1,21.3 8,29.1 1.4,2.3 2.4,4.2 2.2,4.4 -0.2,0.2 -7.1,-3.5 -15.3,-8.2 -38.9,-22.3 -74.2,-39.4 -97.5,-47.3 -37.4,-12.8 -77.8,-14.2 -110,-3.8 -24.5,7.8 -44.4,24.3 -54.7,45.3 -4.6,9.3 -5.8,14.9 -5.7,26.5 0.1,8.9 0.5,11.6 2.7,17.4 8.6,22 28.1,35.6 51.2,35.6 9.6,0 16.6,-1.8 26,-6.4 13.2,-6.6 23,-16.4 23.5,-23.6 0.5,-6.2 -0.1,-8.3 -3.4,-11.6 -2.6,-2.6 -4.2,-3.4 -6.9,-3.4 -7.4,0 -11.1,6.8 -9.7,17.9 0.7,5.7 0.5,6 -7,10.3 -7.7,4.4 -15.2,6.1 -25.4,5.6 -7.7,-0.3 -10.1,-0.9 -15.9,-3.7 -18.7,-9 -28.5,-30.2 -23.2,-50.4 5.9,-22.7 29.5,-44 54.3,-49.2 9.3,-1.9 31,-2 41.7,-0.1 32.7,5.8 65.5,19.1 145,58.8 50.4,25.3 67.6,32.3 93.8,38.7 26.8,6.6 54.5,8.3 73.2,4.7 30.8,-6 51.4,-23.9 58.1,-50.5 2.5,-10 1.6,-24.9 -1.9,-32.3 -8.8,-18.2 -33.7,-26.3 -57.9,-18.8 -11.5,3.5 -18.8,10.6 -18.8,18.2 0,8.9 12.4,10.6 19.6,2.6 1.2,-1.2 3.2,-4.3 4.4,-6.8 1.3,-2.5 2.8,-4.8 3.4,-5.2 2,-1.4 17.1,-0.8 22.4,0.7 7.3,2.2 13.2,7 16.5,13.5 2.7,5.2 2.8,6.1 2.5,16.5 -0.3,10.3 -0.5,11.5 -4.1,18.9 -7.2,15.1 -22.1,26.4 -42.2,31.8 -11.8,3.1 -37.6,3.2 -52.7,0 -42.2,-8.8 -77,-33.7 -85.6,-61.2 -2.6,-8.4 -2.3,-23.3 0.5,-28.6 2.9,-5.4 9.3,-10.9 15.1,-12.8 4.7,-1.7 20.7,-2.2 22.8,-0.8 0.6,0.4 2.4,3.5 3.9,7 3.1,6.9 5.5,9.2 9.7,9.2 5.8,0 8.2,-6 5,-12.5 -5.4,-11.2 -26,-16.8 -42.4,-11.6 z"
         id="path57-2"
         style="stroke-width:0.1" />
      <path
         d="m 423.86998,20.6397 c -2,1.1 -3.9,2.4 -4.2,2.9 -0.9,1.3 49.8,23.7 80.4,35.4 8,3 24.9,9.1 37.5,13.5 12.7,4.4 23.7,8.3 24.5,8.6 0.8,0.4 2.3,1.9 3.2,3.6 3.3,5.9 14.8,6 15.6,0.2 0.7,-5 -5.4,-8.7 -26,-15.7 -31,-10.6 -79.8,-29.5 -102.6,-39.6 -13.5,-6 -24.5,-10.9 -24.6,-10.9 -0.1,0.1 -1.8,1 -3.8,2 z"
         id="path61-5"
         style="stroke-width:0.1" />
      <path
         d="m 526.06998,52.6397 c 0,0.3 3.7,1.9 8.3,3.5 8.1,3 8.5,3 34,3.5 14.1,0.3 25.7,0.2 25.7,-0.1 0,-0.4 -2.8,-1.9 -6.2,-3.5 l -6.3,-2.9 -27.8,-0.5 c -15.2,-0.3 -27.7,-0.3 -27.7,0 z"
         id="path65-9"
         style="stroke-width:0.1" />
      <path
         d="m 232.06998,56.1397 v 3.5 h 34.1 c 30.7,0 34.1,-0.2 33.5,-1.6 -0.3,-0.9 -0.6,-2.4 -0.6,-3.5 0,-1.8 -1.1,-1.9 -33.5,-1.9 h -33.5 z"
         id="path69-4"
         style="stroke-width:0.1" />
      <path
         d="m 319.26998,55.8397 0.3,3.3 25.1,0.3 25.1,0.2 1,-3.5 1.1,-3.5 h -26.5 -26.4 z"
         id="path71-8"
         style="stroke-width:0.1" />
      <path
         d="m 394.66998,53.5397 c -0.3,0.4 -1,2 -1.5,3.4 l -1,2.7 46.9,0.2 c 25.9,0.2 47,0.1 47,-0.2 0,-0.3 -3.7,-2 -8.3,-3.8 l -8.3,-3.2 h -37.1 c -20.5,0 -37.4,0.4 -37.7,0.9 z"
         id="path73-0"
         style="stroke-width:0.1" />
      <path
         d="m 672.66998,56.1397 2.6,3.5 h 79.9 79.9 v -3.5 -3.5 h -82.6 -82.5 z"
         id="path75-3"
         style="stroke-width:0.1" />
    </g>
  </g>
</svg>
