<?xml version="1.0" encoding="UTF-8" standalone="no"?>
<svg
   xmlns:dc="http://purl.org/dc/elements/1.1/"
   xmlns:cc="http://creativecommons.org/ns#"
   xmlns:rdf="http://www.w3.org/1999/02/22-rdf-syntax-ns#"
   xmlns:svg="http://www.w3.org/2000/svg"
   xmlns="http://www.w3.org/2000/svg"
   width="24.098928mm"
   height="22.497881mm"
   viewBox="0 0 24.098928 22.497881"
   version="1.1"
   id="svg8">
  <defs
     id="defs2" />
  <metadata
     id="metadata5">
    <rdf:RDF>
      <cc:Work
         rdf:about="">
        <dc:format>image/svg+xml</dc:format>
        <dc:type
           rdf:resource="http://purl.org/dc/dcmitype/StillImage" />
        <dc:title></dc:title>
      </cc:Work>
    </rdf:RDF>
  </metadata>
  <g
     id="layer1"
     transform="translate(-74.083342,-122.82159)">
    <g
       aria-label="R"
       id="text12"
       style="font-style:normal;font-weight:normal;font-size:10.5833px;line-height:1.25;font-family:sans-serif;fill:#000000;fill-opacity:1;stroke:none;stroke-width:0.264583">
      <path
         d="m 84.774156,122.82159 c 2.248958,0 3.964616,0.40101 5.146973,1.20303 1.190625,0.79375 1.785937,1.93477 1.785937,3.42305 0,0.7276 -0.08682,1.35185 -0.260449,1.87275 -0.165365,0.51263 -0.401009,0.95085 -0.706934,1.31465 -0.297656,0.35553 -0.657324,0.65319 -1.079004,0.89297 -0.413411,0.23151 -0.86403,0.42995 -1.351855,0.59531 0.338997,0.091 0.677995,0.33487 1.016992,0.73174 0.347266,0.39687 0.698666,0.88883 1.054199,1.47588 0.355534,0.57877 0.715202,1.22369 1.079004,1.93476 0.363802,0.71107 0.727604,1.43041 1.091406,2.15801 0.372071,0.72761 0.744141,1.43454 1.116211,2.1208 0.380339,0.68627 0.756543,1.29812 1.128614,1.83555 0.380338,0.53743 0.760676,0.96738 1.141015,1.28984 0.388607,0.32247 0.536844,0.38921 0.917183,0.38921 0.165365,0 0.279638,3.7e-4 0.649056,-0.47718 0.413411,-0.99923 0.588816,-1.60875 0.679766,-1.67491 0,0 -0.116913,1.34898 -0.247452,1.86567 -0.141741,0.42172 -0.119888,0.3201 -0.395103,0.73469 -0.239779,0.11575 -0.450028,0.35317 -0.772489,0.45239 -0.322461,0.0992 -0.686263,0.1819 -1.091406,0.24804 -0.396875,0.0744 -0.839225,0.11163 -1.327051,0.11163 -0.802018,0 -1.525488,-0.22324 -2.17041,-0.66973 -0.644922,-0.43822 -1.198893,-1.05834 -1.661914,-1.86035 -0.471289,-0.82683 -0.934309,-1.69499 -1.389062,-2.60449 l -1.364258,-2.72852 c -0.446485,-0.90951 -0.897103,-1.79834 -1.351856,-2.6665 -0.446484,-0.86817 -0.897102,-1.68259 -1.351855,-2.44327 l 0.09922,-0.50849 c 0.487825,0.12402 0.909505,0.0951 1.265039,-0.0868 0.363802,-0.1819 0.661458,-0.47542 0.892968,-0.88056 0.231511,-0.41341 0.40101,-0.91778 0.508497,-1.51309 0.115755,-0.59531 0.173632,-1.24024 0.173632,-1.93477 0,-0.49609 -0.05374,-0.95911 -0.16123,-1.38906 -0.107487,-0.43821 -0.26045,-0.81855 -0.458887,-1.14101 -0.190169,-0.33073 -0.42168,-0.58705 -0.694531,-0.76895 -0.272851,-0.19017 -0.578776,-0.28525 -0.917773,-0.28525 -0.264583,0 -0.483692,0.0413 -0.657325,0.12402 -0.165365,0.0744 -0.297656,0.17363 -0.396875,0.29766 -0.09922,0.11575 -0.169499,0.24391 -0.21084,0.38447 -0.03307,0.13229 -0.04961,0.26045 -0.04961,0.38447 v 14.70918 c 0,0.63665 -0.169499,1.09967 -0.508496,1.38906 -0.330729,0.28939 -0.839225,0.43409 -1.525488,0.43409 -0.694531,0 -1.207162,-0.1447 -1.537891,-0.43409 -0.330729,-0.28939 -0.496094,-0.75241 -0.496094,-1.38906 v -14.8332 c 0,-0.45475 -0.314193,-0.68213 -0.942578,-0.68213 -0.454753,0 -0.917773,0.0703 -1.389062,0.21084 -0.463021,0.13229 -0.8847,0.31833 -1.265039,0.5581 -0.372071,0.23151 -0.677995,0.51263 -0.917774,0.84336 -0.239779,0.32247 -0.359668,0.67387 -0.359668,1.0542 0,0.26459 0.03307,0.47543 0.09922,0.63252 0.07441,0.1571 0.157096,0.27699 0.248047,0.35967 0.09095,0.0744 0.181901,0.12402 0.272852,0.14883 0.09922,0.0165 0.169498,0.0248 0.210839,0.0248 0.206706,0 0.376205,-0.0331 0.508496,-0.0992 0.132292,-0.0744 0.252181,-0.14883 0.359668,-0.22324 0.107487,-0.0827 0.206706,-0.15709 0.297657,-0.22324 0.09922,-0.0744 0.21084,-0.11162 0.334863,-0.11162 0.09922,0 0.202572,0.0248 0.310059,0.0744 0.115755,0.0413 0.219107,0.11161 0.310058,0.21084 0.09922,0.0992 0.181901,0.23151 0.248047,0.39688 0.06615,0.15709 0.09922,0.3514 0.09922,0.58291 0,0.33073 -0.06615,0.61598 -0.198438,0.85576 -0.124023,0.23978 -0.289388,0.44235 -0.496093,0.60771 -0.198438,0.1571 -0.429949,0.27699 -0.694532,0.35967 -0.256315,0.0744 -0.51263,0.11162 -0.768945,0.11162 -0.396875,0 -0.756543,-0.0661 -1.079004,-0.19843 -0.314193,-0.14056 -0.58291,-0.33073 -0.806152,-0.57051 -0.223243,-0.23978 -0.392741,-0.5209 -0.508496,-0.84336 -0.115755,-0.32246 -0.173633,-0.66559 -0.173633,-1.0294 0,-0.68626 0.128158,-1.28984 0.384473,-1.81074 0.256315,-0.52917 0.615982,-0.98392 1.079003,-1.36426 0.471289,-0.38033 1.033529,-0.69452 1.686719,-0.94257 0.65319,-0.25632 1.37666,-0.45889 2.17041,-0.60772 0.79375,-0.14883 1.641244,-0.25218 2.542481,-0.31006 0.909505,-0.0661 1.852083,-0.0992 2.827734,-0.0992 z"
         style="font-style:normal;font-variant:normal;font-weight:normal;font-stretch:normal;font-size:25.4px;font-family:'Berkshire Swash';-inkscape-font-specification:'Berkshire Swash';stroke-width:0.264583"
         id="path14" />
    </g>
  </g>
</svg>
