<?xml version="1.0" standalone="no"?>
<!DOCTYPE svg PUBLIC "-//W3C//DTD SVG 20010904//EN"
 "http://www.w3.org/TR/2001/REC-SVG-20010904/DTD/svg10.dtd">
<svg version="1.0" xmlns="http://www.w3.org/2000/svg"
 width="768.000000pt" height="768.000000pt" viewBox="0 0 768.000000 768.000000"
 preserveAspectRatio="xMidYMid meet">
<metadata>
Created by potrace 1.11, written by Peter Selinger 2001-2013
</metadata>
<g transform="translate(0.000000,768.000000) scale(0.100000,-0.100000)"
fill="#000000" stroke="none">
<path d="M2948 7414 c-2 -1 -57 -5 -123 -8 -213 -10 -415 -23 -499 -32 -32 -3
-75 -7 -95 -9 -66 -6 -162 -16 -183 -20 -38 -8 -133 -19 -160 -20 -16 0 -28
-3 -28 -6 0 -3 -6 -6 -12 -6 -17 0 -96 -12 -128 -18 -27 -6 -59 -12 -103 -20
-16 -3 -65 -15 -110 -26 -45 -11 -89 -22 -97 -23 -8 -2 -42 -11 -75 -20 -33
-10 -67 -19 -75 -21 -8 -2 -16 -4 -17 -5 -2 -2 -6 -3 -10 -4 -5 -1 -33 -10
-63 -21 -30 -11 -57 -20 -60 -20 -3 -1 -12 -4 -20 -8 -8 -3 -42 -15 -74 -27
-33 -12 -64 -24 -70 -28 -6 -3 -16 -7 -23 -8 -20 -3 -203 -98 -278 -144 -271
-166 -457 -382 -565 -660 -22 -56 -57 -193 -66 -259 -13 -92 -12 -319 2 -396
8 -44 18 -87 21 -95 3 -8 7 -17 8 -20 19 -75 82 -196 140 -268 83 -104 272
-226 381 -247 10 -2 19 -4 19 -5 0 -1 9 -3 20 -6 138 -29 323 -25 450 10 26 7
94 35 115 47 8 5 31 16 50 26 41 20 180 152 180 170 0 7 3 13 8 13 16 0 74
143 86 212 15 84 12 202 -5 257 -46 145 -140 240 -257 257 -20 3 -42 7 -49 9
-7 2 -15 0 -18 -5 -4 -6 -14 -10 -23 -10 -9 0 -55 -29 -102 -63 -127 -94 -204
-129 -291 -132 -38 -2 -86 2 -107 8 -48 15 -121 88 -150 151 -61 130 -42 356
41 491 28 45 123 160 160 194 22 20 46 42 53 49 7 6 17 12 23 12 6 0 11 3 11
8 0 4 28 25 63 46 34 21 75 47 90 58 15 11 37 21 49 23 11 2 27 10 35 17 9 7
32 19 52 26 59 23 204 72 226 77 11 3 47 11 80 20 33 8 80 17 105 20 25 3 59
8 75 10 65 9 232 6 275 -5 25 -6 51 -12 58 -12 6 -1 12 -5 12 -9 0 -4 9 -11
20 -14 23 -7 68 -63 77 -96 4 -13 8 -1098 9 -2411 2 -1312 4 -2417 5 -2455 1
-37 8 -89 15 -116 7 -26 13 -50 13 -52 16 -63 60 -141 107 -189 41 -40 120
-92 154 -101 3 -1 12 -4 20 -8 8 -3 29 -9 45 -13 17 -4 32 -8 35 -9 68 -19
151 -26 265 -25 91 1 180 6 180 10 0 2 16 5 58 14 130 24 264 112 320 209 32
55 64 149 73 217 4 30 8 1146 9 2480 l2 2425 21 55 c31 78 99 153 175 189 140
68 335 59 475 -21 55 -31 177 -144 217 -201 25 -36 115 -197 110 -197 -2 0 7
-24 20 -54 19 -42 38 -98 50 -146 9 -35 19 -79 21 -95 2 -11 9 -45 14 -75 13
-72 23 -202 23 -320 1 -104 -10 -320 -18 -360 -2 -14 -7 -51 -9 -83 -3 -32 -7
-61 -10 -65 -2 -4 -7 -27 -10 -52 -27 -199 -118 -458 -208 -588 -85 -124 -244
-238 -358 -259 -70 -12 -255 -4 -282 13 -4 3 -9 0 -9 -5 -1 -6 -2 -14 -3 -18
-1 -5 -8 -38 -15 -74 l-13 -66 46 -77 c25 -43 46 -81 46 -85 0 -4 8 -16 18
-27 9 -11 31 -47 47 -79 17 -33 32 -62 35 -65 3 -3 21 -34 39 -70 19 -36 42
-78 52 -95 10 -16 30 -55 46 -85 15 -30 40 -77 55 -103 15 -26 28 -54 28 -62
0 -7 3 -15 8 -17 4 -1 25 -39 47 -83 22 -44 45 -83 50 -87 6 -4 7 -8 2 -8 -4
0 3 -17 16 -37 13 -21 200 -391 416 -823 474 -949 551 -1101 724 -1410 168
-302 285 -452 482 -621 61 -53 104 -83 186 -131 64 -37 97 -53 204 -99 18 -8
109 -33 160 -45 66 -15 129 -19 290 -18 164 1 235 5 320 19 17 3 48 7 70 11
94 14 337 74 381 94 55 26 224 139 224 150 0 5 6 15 13 22 6 7 24 31 39 54 50
77 79 193 103 414 3 25 7 61 10 80 30 224 27 273 -9 173 -10 -26 -21 -57 -26
-68 -40 -92 -47 -114 -42 -119 3 -3 1 -6 -5 -6 -5 0 -10 -6 -10 -13 0 -11 -39
-118 -63 -172 -5 -11 -17 -40 -28 -65 -21 -49 -104 -142 -147 -164 -35 -18
-158 -14 -210 8 -90 38 -260 190 -381 341 -26 33 -51 62 -54 65 -14 13 -94
126 -158 225 -39 61 -76 115 -82 122 -5 7 -10 14 -10 17 0 4 -77 137 -120 206
-5 8 -21 38 -36 65 -14 28 -35 62 -46 78 -11 15 -16 27 -12 27 3 0 1 6 -5 14
-11 13 -19 27 -102 185 -22 41 -43 79 -47 85 -4 6 -7 13 -7 16 -1 6 -58 116
-85 166 -41 73 -140 272 -140 282 0 6 -3 12 -7 14 -5 2 -60 106 -123 233 -63
126 -126 250 -140 275 -13 25 -25 51 -26 58 -2 7 -8 19 -14 27 -7 8 -28 45
-47 82 -62 120 -145 270 -180 325 -12 21 -23 40 -23 42 0 8 -169 278 -196 313
-13 17 -24 36 -24 42 0 6 -3 11 -8 11 -4 0 -18 18 -32 40 -14 22 -28 40 -32
40 -5 0 -8 6 -8 13 0 7 -9 19 -20 27 -11 8 -20 18 -20 22 0 11 -34 50 -125
143 -81 83 -161 142 -228 166 -42 15 -39 20 23 39 25 8 56 21 70 29 13 9 25
15 27 14 9 -7 235 99 298 139 244 157 422 368 510 608 31 83 73 237 80 290 4
29 9 62 11 74 24 114 24 447 -1 569 -3 15 -7 37 -9 50 -10 53 -36 147 -53 187
-3 8 -7 17 -8 20 -12 36 -57 133 -65 140 -3 3 -14 22 -25 43 -17 33 -33 54
-75 104 -5 7 -10 15 -10 18 0 9 -161 167 -209 205 -25 19 -67 49 -95 67 -28
18 -55 36 -61 40 -8 7 -83 47 -155 84 -122 62 -429 161 -570 183 -51 8 -93 16
-110 21 -8 2 -40 7 -70 10 -30 3 -62 8 -70 10 -8 2 -49 7 -90 11 -41 3 -93 8
-115 11 -42 6 -852 12 -857 7z"/>
</g>
</svg>
