<?xml version="1.0" standalone="no"?>
<!DOCTYPE svg PUBLIC "-//W3C//DTD SVG 20010904//EN"
 "http://www.w3.org/TR/2001/REC-SVG-20010904/DTD/svg10.dtd">
<svg version="1.0" xmlns="http://www.w3.org/2000/svg"
 width="640.000000pt" height="640.000000pt" viewBox="0 0 640.000000 640.000000"
 preserveAspectRatio="xMidYMid meet">
<metadata>
Created by potrace 1.14, written by Peter Selinger 2001-2017
</metadata>
<g transform="translate(0.000000,640.000000) scale(0.100000,-0.100000)"
fill="#000000" stroke="none">
<path d="M1439 6236 c-2 -2 -26 -7 -54 -10 -119 -16 -264 -53 -370 -96 -79
-32 -227 -109 -281 -146 -36 -24 -68 -44 -70 -44 -3 0 -11 -6 -19 -12 -7 -7
-30 -26 -51 -43 -55 -43 -182 -170 -236 -235 -139 -169 -254 -400 -311 -625
-15 -58 -19 -76 -34 -180 -10 -64 -10 -3235 -1 -3295 4 -25 10 -56 13 -70 3
-14 8 -38 10 -55 13 -71 75 -266 92 -286 7 -8 13 -22 13 -30 0 -24 116 -226
177 -308 54 -72 215 -239 279 -289 176 -138 388 -244 607 -302 80 -21 93 -23
202 -37 77 -10 3534 -10 3600 -1 28 5 64 11 80 14 17 3 41 7 55 9 14 2 25 4
25 5 0 1 9 3 20 5 131 25 417 156 540 247 198 146 372 342 471 528 16 30 32
57 37 58 4 2 7 9 7 15 0 7 12 35 25 62 14 28 25 57 25 66 0 8 4 19 8 25 8 9
26 64 53 164 20 71 25 98 36 180 10 71 10 3240 1 3300 -5 25 -10 61 -14 80
-23 146 -121 412 -186 502 -11 16 -17 28 -14 28 6 0 -107 164 -135 195 -90
102 -135 146 -204 204 -71 60 -202 155 -215 156 -3 0 -25 12 -50 27 -128 75
-344 151 -490 174 -25 3 -56 9 -70 12 -27 7 -3564 14 -3571 8z"/>
</g>
</svg>
